<mxfile host="app.diagrams.net" agent="Mozilla/5.0 (Windows NT 10.0; Win64; x64; rv:131.0) Gecko/20100101 Firefox/131.0" version="24.7.17">
  <diagram name="Page-1" id="Or2oByHhBCITwsBlFZ0l">
    <mxGraphModel dx="1723" dy="808" grid="1" gridSize="10" guides="1" tooltips="1" connect="1" arrows="1" fold="1" page="1" pageScale="1" pageWidth="827" pageHeight="1169" math="0" shadow="0">
      <root>
        <mxCell id="0" />
        <mxCell id="1" parent="0" />
        <mxCell id="l-GMUK545HOAS7rDEwfJ-67" value="" style="whiteSpace=wrap;html=1;aspect=fixed;" vertex="1" parent="1">
          <mxGeometry x="145" y="10" width="910" height="910" as="geometry" />
        </mxCell>
        <mxCell id="l-GMUK545HOAS7rDEwfJ-29" style="edgeStyle=orthogonalEdgeStyle;rounded=0;orthogonalLoop=1;jettySize=auto;html=1;exitX=0.5;exitY=0;exitDx=0;exitDy=0;exitPerimeter=0;entryX=0;entryY=0.5;entryDx=0;entryDy=0;" edge="1" parent="1" source="l-GMUK545HOAS7rDEwfJ-1" target="l-GMUK545HOAS7rDEwfJ-10">
          <mxGeometry relative="1" as="geometry" />
        </mxCell>
        <mxCell id="l-GMUK545HOAS7rDEwfJ-30" style="edgeStyle=orthogonalEdgeStyle;rounded=0;orthogonalLoop=1;jettySize=auto;html=1;exitX=1;exitY=0.3333333333333333;exitDx=0;exitDy=0;exitPerimeter=0;entryX=0;entryY=0.5;entryDx=0;entryDy=0;" edge="1" parent="1" source="l-GMUK545HOAS7rDEwfJ-1" target="l-GMUK545HOAS7rDEwfJ-11">
          <mxGeometry relative="1" as="geometry" />
        </mxCell>
        <mxCell id="l-GMUK545HOAS7rDEwfJ-31" style="edgeStyle=orthogonalEdgeStyle;rounded=0;orthogonalLoop=1;jettySize=auto;html=1;exitX=0.5;exitY=0.5;exitDx=0;exitDy=0;exitPerimeter=0;entryX=0;entryY=0.5;entryDx=0;entryDy=0;" edge="1" parent="1" source="l-GMUK545HOAS7rDEwfJ-1" target="l-GMUK545HOAS7rDEwfJ-12">
          <mxGeometry relative="1" as="geometry" />
        </mxCell>
        <mxCell id="l-GMUK545HOAS7rDEwfJ-32" style="edgeStyle=orthogonalEdgeStyle;rounded=0;orthogonalLoop=1;jettySize=auto;html=1;exitX=1;exitY=1;exitDx=0;exitDy=0;exitPerimeter=0;entryX=0;entryY=0.5;entryDx=0;entryDy=0;" edge="1" parent="1" source="l-GMUK545HOAS7rDEwfJ-1" target="l-GMUK545HOAS7rDEwfJ-13">
          <mxGeometry relative="1" as="geometry" />
        </mxCell>
        <mxCell id="l-GMUK545HOAS7rDEwfJ-33" style="edgeStyle=orthogonalEdgeStyle;rounded=0;orthogonalLoop=1;jettySize=auto;html=1;exitX=0;exitY=1;exitDx=0;exitDy=0;exitPerimeter=0;entryX=0.5;entryY=1;entryDx=0;entryDy=0;" edge="1" parent="1" source="l-GMUK545HOAS7rDEwfJ-1" target="l-GMUK545HOAS7rDEwfJ-15">
          <mxGeometry relative="1" as="geometry" />
        </mxCell>
        <mxCell id="l-GMUK545HOAS7rDEwfJ-34" style="edgeStyle=orthogonalEdgeStyle;rounded=0;orthogonalLoop=1;jettySize=auto;html=1;exitX=0.5;exitY=0.5;exitDx=0;exitDy=0;exitPerimeter=0;entryX=0;entryY=0.5;entryDx=0;entryDy=0;" edge="1" parent="1" source="l-GMUK545HOAS7rDEwfJ-1" target="l-GMUK545HOAS7rDEwfJ-14">
          <mxGeometry relative="1" as="geometry" />
        </mxCell>
        <mxCell id="l-GMUK545HOAS7rDEwfJ-1" value="User" style="shape=umlActor;verticalLabelPosition=bottom;verticalAlign=top;html=1;" vertex="1" parent="1">
          <mxGeometry x="236" y="290" width="30" height="60" as="geometry" />
        </mxCell>
        <mxCell id="l-GMUK545HOAS7rDEwfJ-2" value="Network" style="shape=umlActor;verticalLabelPosition=bottom;verticalAlign=top;html=1;" vertex="1" parent="1">
          <mxGeometry x="860" y="210" width="30" height="60" as="geometry" />
        </mxCell>
        <mxCell id="l-GMUK545HOAS7rDEwfJ-37" style="edgeStyle=orthogonalEdgeStyle;rounded=0;orthogonalLoop=1;jettySize=auto;html=1;exitX=0;exitY=0.3333333333333333;exitDx=0;exitDy=0;exitPerimeter=0;entryX=1;entryY=1;entryDx=0;entryDy=0;" edge="1" parent="1" source="l-GMUK545HOAS7rDEwfJ-5" target="l-GMUK545HOAS7rDEwfJ-26">
          <mxGeometry relative="1" as="geometry" />
        </mxCell>
        <mxCell id="l-GMUK545HOAS7rDEwfJ-5" value="&lt;div&gt;operational_System&lt;/div&gt;&lt;div&gt;&lt;br&gt;&lt;/div&gt;" style="shape=umlActor;verticalLabelPosition=bottom;verticalAlign=top;html=1;" vertex="1" parent="1">
          <mxGeometry x="870" y="600" width="30" height="60" as="geometry" />
        </mxCell>
        <mxCell id="l-GMUK545HOAS7rDEwfJ-10" value="&lt;em&gt;Choose Username&lt;/em&gt;" style="ellipse;whiteSpace=wrap;html=1;" vertex="1" parent="1">
          <mxGeometry x="350" y="180" width="100" height="40" as="geometry" />
        </mxCell>
        <mxCell id="l-GMUK545HOAS7rDEwfJ-11" value="&lt;em&gt;Display Online Users&lt;/em&gt;" style="ellipse;whiteSpace=wrap;html=1;" vertex="1" parent="1">
          <mxGeometry x="352" y="260" width="100" height="40" as="geometry" />
        </mxCell>
        <mxCell id="l-GMUK545HOAS7rDEwfJ-12" value=" &lt;em&gt;Start Session&lt;/em&gt;" style="ellipse;whiteSpace=wrap;html=1;" vertex="1" parent="1">
          <mxGeometry x="350" y="390" width="100" height="40" as="geometry" />
        </mxCell>
        <mxCell id="l-GMUK545HOAS7rDEwfJ-41" style="edgeStyle=orthogonalEdgeStyle;rounded=0;orthogonalLoop=1;jettySize=auto;html=1;exitX=1;exitY=0;exitDx=0;exitDy=0;entryX=0;entryY=0.5;entryDx=0;entryDy=0;" edge="1" parent="1" source="l-GMUK545HOAS7rDEwfJ-13" target="l-GMUK545HOAS7rDEwfJ-21">
          <mxGeometry relative="1" as="geometry" />
        </mxCell>
        <mxCell id="l-GMUK545HOAS7rDEwfJ-42" style="edgeStyle=orthogonalEdgeStyle;rounded=0;orthogonalLoop=1;jettySize=auto;html=1;exitX=1;exitY=1;exitDx=0;exitDy=0;entryX=0;entryY=0.5;entryDx=0;entryDy=0;" edge="1" parent="1" source="l-GMUK545HOAS7rDEwfJ-13" target="l-GMUK545HOAS7rDEwfJ-24">
          <mxGeometry relative="1" as="geometry" />
        </mxCell>
        <mxCell id="l-GMUK545HOAS7rDEwfJ-13" value=" &lt;em&gt;Display Message&lt;/em&gt;" style="ellipse;whiteSpace=wrap;html=1;" vertex="1" parent="1">
          <mxGeometry x="350" y="500" width="100" height="40" as="geometry" />
        </mxCell>
        <mxCell id="l-GMUK545HOAS7rDEwfJ-14" value=" &lt;em&gt;End Session&lt;/em&gt;" style="ellipse;whiteSpace=wrap;html=1;" vertex="1" parent="1">
          <mxGeometry x="350" y="570" width="100" height="40" as="geometry" />
        </mxCell>
        <mxCell id="l-GMUK545HOAS7rDEwfJ-15" value="&lt;em&gt;Minimize Window&lt;/em&gt;" style="ellipse;whiteSpace=wrap;html=1;" vertex="1" parent="1">
          <mxGeometry x="352" y="650" width="100" height="40" as="geometry" />
        </mxCell>
        <mxCell id="l-GMUK545HOAS7rDEwfJ-16" value=" &lt;em&gt;Ensure Unique Username&lt;/em&gt;" style="ellipse;whiteSpace=wrap;html=1;" vertex="1" parent="1">
          <mxGeometry x="574" y="140" width="100" height="40" as="geometry" />
        </mxCell>
        <mxCell id="l-GMUK545HOAS7rDEwfJ-17" value=" &lt;em&gt;Change Username&lt;/em&gt;" style="ellipse;whiteSpace=wrap;html=1;" vertex="1" parent="1">
          <mxGeometry x="570" y="200" width="100" height="40" as="geometry" />
        </mxCell>
        <mxCell id="l-GMUK545HOAS7rDEwfJ-18" value=" &lt;em&gt;Identify Users&lt;/em&gt;" style="ellipse;whiteSpace=wrap;html=1;" vertex="1" parent="1">
          <mxGeometry x="572" y="252" width="100" height="40" as="geometry" />
        </mxCell>
        <mxCell id="l-GMUK545HOAS7rDEwfJ-19" value="&lt;em&gt;Select Recipient&lt;br&gt;&lt;/em&gt;" style="ellipse;whiteSpace=wrap;html=1;" vertex="1" parent="1">
          <mxGeometry x="560" y="330" width="100" height="40" as="geometry" />
        </mxCell>
        <mxCell id="l-GMUK545HOAS7rDEwfJ-20" value=" &lt;em&gt;Retrieve History&lt;/em&gt;" style="ellipse;whiteSpace=wrap;html=1;" vertex="1" parent="1">
          <mxGeometry x="560" y="390" width="100" height="40" as="geometry" />
        </mxCell>
        <mxCell id="l-GMUK545HOAS7rDEwfJ-21" value="&lt;em&gt;Send Message&lt;/em&gt;" style="ellipse;whiteSpace=wrap;html=1;" vertex="1" parent="1">
          <mxGeometry x="550" y="460" width="100" height="40" as="geometry" />
        </mxCell>
        <mxCell id="l-GMUK545HOAS7rDEwfJ-24" value="&lt;em&gt;Receive Message&lt;/em&gt;" style="ellipse;whiteSpace=wrap;html=1;" vertex="1" parent="1">
          <mxGeometry x="540" y="530" width="100" height="40" as="geometry" />
        </mxCell>
        <mxCell id="l-GMUK545HOAS7rDEwfJ-54" style="edgeStyle=orthogonalEdgeStyle;rounded=0;orthogonalLoop=1;jettySize=auto;html=1;exitX=0.5;exitY=0;exitDx=0;exitDy=0;entryX=1;entryY=0.5;entryDx=0;entryDy=0;" edge="1" parent="1" source="l-GMUK545HOAS7rDEwfJ-26" target="l-GMUK545HOAS7rDEwfJ-21">
          <mxGeometry relative="1" as="geometry" />
        </mxCell>
        <mxCell id="l-GMUK545HOAS7rDEwfJ-55" style="edgeStyle=orthogonalEdgeStyle;rounded=0;orthogonalLoop=1;jettySize=auto;html=1;exitX=0.5;exitY=1;exitDx=0;exitDy=0;entryX=1;entryY=1;entryDx=0;entryDy=0;" edge="1" parent="1" source="l-GMUK545HOAS7rDEwfJ-26" target="l-GMUK545HOAS7rDEwfJ-24">
          <mxGeometry relative="1" as="geometry" />
        </mxCell>
        <mxCell id="l-GMUK545HOAS7rDEwfJ-26" value="&lt;em&gt;Timer Controller&lt;/em&gt;" style="ellipse;whiteSpace=wrap;html=1;" vertex="1" parent="1">
          <mxGeometry x="680" y="520" width="100" height="40" as="geometry" />
        </mxCell>
        <mxCell id="l-GMUK545HOAS7rDEwfJ-35" style="edgeStyle=orthogonalEdgeStyle;rounded=0;orthogonalLoop=1;jettySize=auto;html=1;exitX=1;exitY=0.5;exitDx=0;exitDy=0;entryX=1;entryY=1;entryDx=0;entryDy=0;entryPerimeter=0;" edge="1" parent="1" source="l-GMUK545HOAS7rDEwfJ-15" target="l-GMUK545HOAS7rDEwfJ-5">
          <mxGeometry relative="1" as="geometry" />
        </mxCell>
        <mxCell id="l-GMUK545HOAS7rDEwfJ-36" style="edgeStyle=orthogonalEdgeStyle;rounded=0;orthogonalLoop=1;jettySize=auto;html=1;exitX=1;exitY=1;exitDx=0;exitDy=0;entryX=0;entryY=0.3333333333333333;entryDx=0;entryDy=0;entryPerimeter=0;" edge="1" parent="1">
          <mxGeometry relative="1" as="geometry">
            <mxPoint x="439.35533905932743" y="295.14213562373095" as="sourcePoint" />
            <mxPoint x="872" y="621" as="targetPoint" />
          </mxGeometry>
        </mxCell>
        <mxCell id="l-GMUK545HOAS7rDEwfJ-38" style="edgeStyle=orthogonalEdgeStyle;rounded=0;orthogonalLoop=1;jettySize=auto;html=1;exitX=1;exitY=0.5;exitDx=0;exitDy=0;entryX=1;entryY=1;entryDx=0;entryDy=0;entryPerimeter=0;" edge="1" parent="1" source="l-GMUK545HOAS7rDEwfJ-14" target="l-GMUK545HOAS7rDEwfJ-2">
          <mxGeometry relative="1" as="geometry" />
        </mxCell>
        <mxCell id="l-GMUK545HOAS7rDEwfJ-45" value="&quot;include&quot;" style="endArrow=open;endSize=12;dashed=1;html=1;rounded=0;entryX=0;entryY=0.5;entryDx=0;entryDy=0;" edge="1" parent="1" target="l-GMUK545HOAS7rDEwfJ-19">
          <mxGeometry width="160" relative="1" as="geometry">
            <mxPoint x="400" y="390" as="sourcePoint" />
            <mxPoint x="560" y="390" as="targetPoint" />
          </mxGeometry>
        </mxCell>
        <mxCell id="l-GMUK545HOAS7rDEwfJ-46" value="&quot;include&quot;" style="endArrow=open;endSize=12;dashed=1;html=1;rounded=0;entryX=0;entryY=0.5;entryDx=0;entryDy=0;exitX=1;exitY=0.5;exitDx=0;exitDy=0;" edge="1" parent="1" source="l-GMUK545HOAS7rDEwfJ-12" target="l-GMUK545HOAS7rDEwfJ-20">
          <mxGeometry width="160" relative="1" as="geometry">
            <mxPoint x="410" y="400" as="sourcePoint" />
            <mxPoint x="570" y="360" as="targetPoint" />
          </mxGeometry>
        </mxCell>
        <mxCell id="l-GMUK545HOAS7rDEwfJ-47" value="Extends" style="endArrow=block;endSize=16;endFill=0;html=1;rounded=0;exitX=0.5;exitY=1;exitDx=0;exitDy=0;entryX=0;entryY=0;entryDx=0;entryDy=0;" edge="1" parent="1" source="l-GMUK545HOAS7rDEwfJ-12" target="l-GMUK545HOAS7rDEwfJ-21">
          <mxGeometry width="160" relative="1" as="geometry">
            <mxPoint x="560" y="490" as="sourcePoint" />
            <mxPoint x="720" y="490" as="targetPoint" />
          </mxGeometry>
        </mxCell>
        <mxCell id="l-GMUK545HOAS7rDEwfJ-49" value="&quot;include&quot;" style="endArrow=open;endSize=12;dashed=1;html=1;rounded=0;entryX=0;entryY=0.5;entryDx=0;entryDy=0;" edge="1" parent="1">
          <mxGeometry width="160" relative="1" as="geometry">
            <mxPoint x="430" y="190" as="sourcePoint" />
            <mxPoint x="580" y="160" as="targetPoint" />
          </mxGeometry>
        </mxCell>
        <mxCell id="l-GMUK545HOAS7rDEwfJ-50" value="&quot;include&quot;" style="endArrow=open;endSize=12;dashed=1;html=1;rounded=0;entryX=0;entryY=0.5;entryDx=0;entryDy=0;exitX=1;exitY=0;exitDx=0;exitDy=0;" edge="1" parent="1" source="l-GMUK545HOAS7rDEwfJ-10" target="l-GMUK545HOAS7rDEwfJ-17">
          <mxGeometry width="160" relative="1" as="geometry">
            <mxPoint x="420" y="220" as="sourcePoint" />
            <mxPoint x="580" y="180" as="targetPoint" />
          </mxGeometry>
        </mxCell>
        <mxCell id="l-GMUK545HOAS7rDEwfJ-52" value="&quot;include&quot;" style="endArrow=open;endSize=12;dashed=1;html=1;rounded=0;exitX=1;exitY=0.5;exitDx=0;exitDy=0;" edge="1" parent="1" source="l-GMUK545HOAS7rDEwfJ-17">
          <mxGeometry width="160" relative="1" as="geometry">
            <mxPoint x="645" y="180" as="sourcePoint" />
            <mxPoint x="680" y="160" as="targetPoint" />
          </mxGeometry>
        </mxCell>
        <mxCell id="l-GMUK545HOAS7rDEwfJ-53" value="&quot;include&quot;" style="endArrow=open;endSize=12;dashed=1;html=1;rounded=0;entryX=0;entryY=0.5;entryDx=0;entryDy=0;exitX=1;exitY=0.5;exitDx=0;exitDy=0;" edge="1" parent="1" source="l-GMUK545HOAS7rDEwfJ-11" target="l-GMUK545HOAS7rDEwfJ-18">
          <mxGeometry width="160" relative="1" as="geometry">
            <mxPoint x="445" y="196" as="sourcePoint" />
            <mxPoint x="580" y="230" as="targetPoint" />
          </mxGeometry>
        </mxCell>
        <mxCell id="l-GMUK545HOAS7rDEwfJ-60" value="" style="endArrow=none;html=1;rounded=0;exitX=0;exitY=1;exitDx=0;exitDy=0;exitPerimeter=0;entryX=1;entryY=0.5;entryDx=0;entryDy=0;" edge="1" parent="1" source="l-GMUK545HOAS7rDEwfJ-2" target="l-GMUK545HOAS7rDEwfJ-24">
          <mxGeometry width="50" height="50" relative="1" as="geometry">
            <mxPoint x="570" y="300" as="sourcePoint" />
            <mxPoint x="620" y="250" as="targetPoint" />
          </mxGeometry>
        </mxCell>
        <mxCell id="l-GMUK545HOAS7rDEwfJ-61" value="" style="endArrow=none;html=1;rounded=0;exitX=0;exitY=1;exitDx=0;exitDy=0;exitPerimeter=0;entryX=1;entryY=0.5;entryDx=0;entryDy=0;" edge="1" parent="1" target="l-GMUK545HOAS7rDEwfJ-21">
          <mxGeometry width="50" height="50" relative="1" as="geometry">
            <mxPoint x="870" y="280" as="sourcePoint" />
            <mxPoint x="650" y="560" as="targetPoint" />
          </mxGeometry>
        </mxCell>
        <mxCell id="l-GMUK545HOAS7rDEwfJ-62" value="" style="endArrow=none;html=1;rounded=0;exitX=0;exitY=1;exitDx=0;exitDy=0;exitPerimeter=0;entryX=1;entryY=0.5;entryDx=0;entryDy=0;" edge="1" parent="1" target="l-GMUK545HOAS7rDEwfJ-20">
          <mxGeometry width="50" height="50" relative="1" as="geometry">
            <mxPoint x="880" y="290" as="sourcePoint" />
            <mxPoint x="660" y="570" as="targetPoint" />
          </mxGeometry>
        </mxCell>
        <mxCell id="l-GMUK545HOAS7rDEwfJ-63" value="" style="endArrow=none;html=1;rounded=0;entryX=1;entryY=0.5;entryDx=0;entryDy=0;" edge="1" parent="1" target="l-GMUK545HOAS7rDEwfJ-18">
          <mxGeometry width="50" height="50" relative="1" as="geometry">
            <mxPoint x="850" y="290" as="sourcePoint" />
            <mxPoint x="670" y="580" as="targetPoint" />
          </mxGeometry>
        </mxCell>
        <mxCell id="l-GMUK545HOAS7rDEwfJ-64" value="" style="endArrow=none;html=1;rounded=0;exitX=0;exitY=0.3333333333333333;exitDx=0;exitDy=0;exitPerimeter=0;entryX=1;entryY=0;entryDx=0;entryDy=0;" edge="1" parent="1" source="l-GMUK545HOAS7rDEwfJ-2" target="l-GMUK545HOAS7rDEwfJ-16">
          <mxGeometry width="50" height="50" relative="1" as="geometry">
            <mxPoint x="900" y="310" as="sourcePoint" />
            <mxPoint x="680" y="340" as="targetPoint" />
          </mxGeometry>
        </mxCell>
        <mxCell id="l-GMUK545HOAS7rDEwfJ-68" value="Text" style="text;html=1;align=center;verticalAlign=middle;whiteSpace=wrap;rounded=0;" vertex="1" parent="1">
          <mxGeometry x="660" y="440" width="60" height="30" as="geometry" />
        </mxCell>
        <mxCell id="l-GMUK545HOAS7rDEwfJ-69" value="Chat_System Use Case" style="text;html=1;align=center;verticalAlign=middle;whiteSpace=wrap;rounded=0;" vertex="1" parent="1">
          <mxGeometry x="150" y="40" width="100" height="40" as="geometry" />
        </mxCell>
      </root>
    </mxGraphModel>
  </diagram>
</mxfile>
